<svg width="169" height="50" viewBox="0 0 169 50" fill="none" xmlns="http://www.w3.org/2000/svg">
<rect width="169" height="50" rx="25" fill="#3A0CA3"/>
<g clip-path="url(#clip0_64_56)">
<path d="M45.7625 22.6375L36.3875 15.1375C36.2766 15.0488 36.1389 15.0004 35.9969 15.0004C35.8549 15.0004 35.7171 15.0488 35.6062 15.1375L26.2312 22.6375C26.1301 22.7186 26.0567 22.8292 26.0212 22.9539C25.9857 23.0787 25.9899 23.2113 26.0332 23.3335C26.0764 23.4558 26.1566 23.5615 26.2627 23.6361C26.3687 23.7108 26.4953 23.7506 26.625 23.75H27.875V34.375C27.875 34.5408 27.9408 34.6997 28.058 34.8169C28.1753 34.9342 28.3342 35 28.5 35H41V33.75H38.5V28.125C38.5 27.9592 38.4341 27.8003 38.3169 27.6831C38.1997 27.5659 38.0408 27.5 37.875 27.5H34.125C33.9592 27.5 33.8003 27.5659 33.683 27.6831C33.5658 27.8003 33.5 27.9592 33.5 28.125V33.75H29.125V23.75H39.75V22.5H28.4062L36 16.425L43.5937 22.5H43.5C43.3342 22.5 43.1753 22.5659 43.058 22.6831C42.9408 22.8003 42.875 22.9592 42.875 23.125V26.875H44.125V23.75H45.375C45.5041 23.7493 45.6298 23.7085 45.7349 23.6334C45.8399 23.5583 45.9191 23.4525 45.9616 23.3306C46.0041 23.2087 46.0077 23.0765 45.9721 22.9524C45.9364 22.8283 45.8632 22.7183 45.7625 22.6375ZM34.75 28.75H37.25V33.75H34.75V28.75Z" fill="white"/>
<path d="M41.625 31.6188L40.8187 30.8125L39.9375 31.6937L41.1875 32.9437C41.3046 33.0602 41.463 33.1255 41.6281 33.1255C41.7932 33.1255 41.9516 33.0602 42.0687 32.9437L45.8187 29.1937L44.9375 28.3125L41.625 31.6188Z" fill="white"/>
</g>
<path d="M62.2634 28.228H57.6074L56.8074 30.5H54.9034L58.8874 19.364H60.9994L64.9834 30.5H63.0634L62.2634 28.228ZM61.7514 26.74L59.9434 21.572L58.1194 26.74H61.7514ZM66.1076 26.052C66.1076 25.1667 66.289 24.3827 66.6516 23.7C67.025 23.0173 67.5263 22.4893 68.1556 22.116C68.7956 21.732 69.505 21.54 70.2836 21.54C70.8596 21.54 71.425 21.668 71.9796 21.924C72.545 22.1693 72.993 22.5 73.3236 22.916V18.66H75.1636V30.5H73.3236V29.172C73.025 29.5987 72.609 29.9507 72.0756 30.228C71.553 30.5053 70.9503 30.644 70.2676 30.644C69.4996 30.644 68.7956 30.452 68.1556 30.068C67.5263 29.6733 67.025 29.1293 66.6516 28.436C66.289 27.732 66.1076 26.9373 66.1076 26.052ZM73.3236 26.084C73.3236 25.476 73.1956 24.948 72.9396 24.5C72.6943 24.052 72.369 23.7107 71.9636 23.476C71.5583 23.2413 71.121 23.124 70.6516 23.124C70.1823 23.124 69.745 23.2413 69.3396 23.476C68.9343 23.7 68.6036 24.036 68.3476 24.484C68.1023 24.9213 67.9796 25.444 67.9796 26.052C67.9796 26.66 68.1023 27.1933 68.3476 27.652C68.6036 28.1107 68.9343 28.4627 69.3396 28.708C69.7556 28.9427 70.193 29.06 70.6516 29.06C71.121 29.06 71.5583 28.9427 71.9636 28.708C72.369 28.4733 72.6943 28.132 72.9396 27.684C73.1956 27.2253 73.3236 26.692 73.3236 26.084ZM76.9514 26.052C76.9514 25.1667 77.1327 24.3827 77.4954 23.7C77.8687 23.0173 78.37 22.4893 78.9994 22.116C79.6394 21.732 80.3487 21.54 81.1274 21.54C81.7034 21.54 82.2687 21.668 82.8234 21.924C83.3887 22.1693 83.8367 22.5 84.1674 22.916V18.66H86.0074V30.5H84.1674V29.172C83.8687 29.5987 83.4527 29.9507 82.9194 30.228C82.3967 30.5053 81.794 30.644 81.1114 30.644C80.3434 30.644 79.6394 30.452 78.9994 30.068C78.37 29.6733 77.8687 29.1293 77.4954 28.436C77.1327 27.732 76.9514 26.9373 76.9514 26.052ZM84.1674 26.084C84.1674 25.476 84.0394 24.948 83.7834 24.5C83.538 24.052 83.2127 23.7107 82.8074 23.476C82.402 23.2413 81.9647 23.124 81.4954 23.124C81.026 23.124 80.5887 23.2413 80.1834 23.476C79.778 23.7 79.4474 24.036 79.1914 24.484C78.946 24.9213 78.8234 25.444 78.8234 26.052C78.8234 26.66 78.946 27.1933 79.1914 27.652C79.4474 28.1107 79.778 28.4627 80.1834 28.708C80.5994 28.9427 81.0367 29.06 81.4954 29.06C81.9647 29.06 82.402 28.9427 82.8074 28.708C83.2127 28.4733 83.538 28.132 83.7834 27.684C84.0394 27.2253 84.1674 26.692 84.1674 26.084ZM94.3834 29.028H98.1434V30.5H92.5594V19.38H94.3834V29.028ZM100.597 20.516C100.266 20.516 99.9888 20.404 99.7648 20.18C99.5408 19.956 99.4288 19.6787 99.4288 19.348C99.4288 19.0173 99.5408 18.74 99.7648 18.516C99.9888 18.292 100.266 18.18 100.597 18.18C100.917 18.18 101.189 18.292 101.413 18.516C101.637 18.74 101.749 19.0173 101.749 19.348C101.749 19.6787 101.637 19.956 101.413 20.18C101.189 20.404 100.917 20.516 100.597 20.516ZM101.493 21.684V30.5H99.6688V21.684H101.493ZM107.088 30.644C106.394 30.644 105.77 30.5213 105.216 30.276C104.672 30.02 104.24 29.6787 103.92 29.252C103.6 28.8147 103.429 28.3293 103.408 27.796H105.296C105.328 28.1693 105.504 28.484 105.824 28.74C106.154 28.9853 106.565 29.108 107.056 29.108C107.568 29.108 107.962 29.012 108.24 28.82C108.528 28.6173 108.672 28.3613 108.672 28.052C108.672 27.7213 108.512 27.476 108.192 27.316C107.882 27.156 107.386 26.98 106.704 26.788C106.042 26.6067 105.504 26.4307 105.088 26.26C104.672 26.0893 104.309 25.828 104 25.476C103.701 25.124 103.552 24.66 103.552 24.084C103.552 23.6147 103.69 23.188 103.968 22.804C104.245 22.4093 104.64 22.1 105.152 21.876C105.674 21.652 106.272 21.54 106.944 21.54C107.946 21.54 108.752 21.796 109.36 22.308C109.978 22.8093 110.309 23.4973 110.352 24.372H108.528C108.496 23.9773 108.336 23.6627 108.048 23.428C107.76 23.1933 107.37 23.076 106.88 23.076C106.4 23.076 106.032 23.1667 105.776 23.348C105.52 23.5293 105.392 23.7693 105.392 24.068C105.392 24.3027 105.477 24.5 105.648 24.66C105.818 24.82 106.026 24.948 106.272 25.044C106.517 25.1293 106.88 25.2413 107.36 25.38C108 25.5507 108.522 25.7267 108.928 25.908C109.344 26.0787 109.701 26.3347 110 26.676C110.298 27.0173 110.453 27.4707 110.464 28.036C110.464 28.5373 110.325 28.9853 110.048 29.38C109.77 29.7747 109.376 30.084 108.864 30.308C108.362 30.532 107.77 30.644 107.088 30.644ZM114.562 23.172V28.052C114.562 28.3827 114.637 28.6227 114.786 28.772C114.946 28.9107 115.213 28.98 115.586 28.98H116.706V30.5H115.266C114.445 30.5 113.816 30.308 113.378 29.924C112.941 29.54 112.722 28.916 112.722 28.052V23.172H111.682V21.684H112.722V19.492H114.562V21.684H116.706V23.172H114.562ZM119.316 20.516C118.985 20.516 118.708 20.404 118.484 20.18C118.26 19.956 118.148 19.6787 118.148 19.348C118.148 19.0173 118.26 18.74 118.484 18.516C118.708 18.292 118.985 18.18 119.316 18.18C119.636 18.18 119.908 18.292 120.132 18.516C120.356 18.74 120.468 19.0173 120.468 19.348C120.468 19.6787 120.356 19.956 120.132 20.18C119.908 20.404 119.636 20.516 119.316 20.516ZM120.212 21.684V30.5H118.388V21.684H120.212ZM127.054 21.54C127.748 21.54 128.366 21.684 128.91 21.972C129.465 22.26 129.897 22.6867 130.206 23.252C130.516 23.8173 130.67 24.5 130.67 25.3V30.5H128.862V25.572C128.862 24.7827 128.665 24.18 128.27 23.764C127.876 23.3373 127.337 23.124 126.654 23.124C125.972 23.124 125.428 23.3373 125.022 23.764C124.628 24.18 124.43 24.7827 124.43 25.572V30.5H122.606V21.684H124.43V22.692C124.729 22.3293 125.108 22.0467 125.566 21.844C126.036 21.6413 126.532 21.54 127.054 21.54ZM136.549 21.54C137.232 21.54 137.834 21.6787 138.357 21.956C138.89 22.2227 139.306 22.5587 139.605 22.964V21.684H141.445V30.644C141.445 31.4547 141.274 32.1747 140.933 32.804C140.592 33.444 140.096 33.9453 139.445 34.308C138.805 34.6707 138.037 34.852 137.141 34.852C135.946 34.852 134.954 34.5693 134.165 34.004C133.376 33.4493 132.928 32.692 132.821 31.732H134.629C134.768 32.1907 135.061 32.5587 135.509 32.836C135.968 33.124 136.512 33.268 137.141 33.268C137.877 33.268 138.469 33.044 138.917 32.596C139.376 32.148 139.605 31.4973 139.605 30.644V29.172C139.296 29.588 138.874 29.94 138.341 30.228C137.818 30.5053 137.221 30.644 136.549 30.644C135.781 30.644 135.077 30.452 134.437 30.068C133.808 29.6733 133.306 29.1293 132.933 28.436C132.57 27.732 132.389 26.9373 132.389 26.052C132.389 25.1667 132.57 24.3827 132.933 23.7C133.306 23.0173 133.808 22.4893 134.437 22.116C135.077 21.732 135.781 21.54 136.549 21.54ZM139.605 26.084C139.605 25.476 139.477 24.948 139.221 24.5C138.976 24.052 138.65 23.7107 138.245 23.476C137.84 23.2413 137.402 23.124 136.933 23.124C136.464 23.124 136.026 23.2413 135.621 23.476C135.216 23.7 134.885 24.036 134.629 24.484C134.384 24.9213 134.261 25.444 134.261 26.052C134.261 26.66 134.384 27.1933 134.629 27.652C134.885 28.1107 135.216 28.4627 135.621 28.708C136.037 28.9427 136.474 29.06 136.933 29.06C137.402 29.06 137.84 28.9427 138.245 28.708C138.65 28.4733 138.976 28.132 139.221 27.684C139.477 27.2253 139.605 26.692 139.605 26.084Z" fill="white"/>
<defs>
<clipPath id="clip0_64_56">
<rect width="20" height="20" fill="white" transform="translate(26 15)"/>
</clipPath>
</defs>
</svg>
